<?xml version="1.0" encoding="utf-8"?>
<!-- Generator: Adobe Illustrator 17.0.0, SVG Export Plug-In . SVG Version: 6.00 Build 0)  -->
<!DOCTYPE svg PUBLIC "-//W3C//DTD SVG 1.1//EN" "http://www.w3.org/Graphics/SVG/1.1/DTD/svg11.dtd">
<svg version="1.1" id="Layer_1" xmlns="http://www.w3.org/2000/svg" xmlns:xlink="http://www.w3.org/1999/xlink" x="0px" y="0px"
	 width="161.75px" height="146.49px" viewBox="0 0 161.75 146.49" enable-background="new 0 0 161.75 146.49" xml:space="preserve">
<g id="Film_01">
</g>
<g id="New_Symbol_8">
</g>
<g>
	<g>
		<path fill="#181C21" d="M105.79,7.701L80.874,25.896L55.96,7.701L6.022,44.174v55.895h28.971V87.794H18.297V50.41L55.96,22.899
			l14.509,10.598L55.851,44.174v55.895h19.69h15.198h15.159V44.174L91.281,33.497l14.509-10.598l37.665,27.511v37.384h-18.086
			v12.275h30.359V44.174L105.79,7.701z M93.624,50.41v37.384h-2.884H75.541h-7.417V50.41l12.75-9.312L93.624,50.41z"/>
	</g>
	<g>
		<path fill="#181C21" d="M7.543,123.28v-14.59h7.225v1.246h-5.9v4.564h5.9v1.245h-5.9v6.289h5.9v1.245H7.543z"/>
		<path fill="#181C21" d="M16.023,123.28l6.408-15.167l6.138,15.167h-1.444l-1.864-4.943h-5.959l-1.934,4.943H16.023z
			 M19.751,117.201h5.082l-2.492-6.349L19.751,117.201z"/>
		<path fill="#181C21" d="M29.088,120.828l1.136-0.608c0.212,0.717,0.579,1.274,1.101,1.668c0.521,0.396,1.147,0.594,1.879,0.594
			c0.923,0,1.644-0.273,2.162-0.818c0.518-0.544,0.778-1.299,0.778-2.261c0-0.705-0.175-1.29-0.523-1.754
			c-0.349-0.465-1.098-1.003-2.247-1.615c-1.468-0.777-2.445-1.461-2.93-2.052c-0.486-0.592-0.728-1.303-0.728-2.133
			c0-1.036,0.35-1.88,1.051-2.531s1.61-0.977,2.726-0.977c0.731,0,1.366,0.155,1.909,0.464c0.541,0.309,0.982,0.772,1.32,1.39
			l-1.026,0.618c-0.213-0.419-0.513-0.737-0.902-0.956c-0.389-0.219-0.849-0.329-1.381-0.329c-0.717,0-1.289,0.211-1.714,0.633
			c-0.425,0.421-0.638,0.991-0.638,1.709c0,1.023,0.844,1.976,2.532,2.86c0.305,0.16,0.538,0.282,0.697,0.369
			c1.243,0.684,2.073,1.33,2.492,1.938c0.419,0.608,0.628,1.397,0.628,2.367c0,1.309-0.382,2.346-1.146,3.114
			c-0.764,0.768-1.804,1.151-3.119,1.151c-0.957,0-1.775-0.237-2.457-0.713C30.006,122.481,29.473,121.772,29.088,120.828z"/>
		<path fill="#181C21" d="M43.498,123.28v-6.717l-4.843-7.873h1.594l3.917,6.687l3.937-6.687h1.515l-4.793,7.873v6.717H43.498z"/>
		<path fill="#181C21" d="M55.825,123.28v-14.59h3.12v5.85h6.328v-5.85h3.119v14.59h-3.119v-6.099h-6.328v6.099H55.825z"/>
		<path fill="#181C21" d="M86.581,116.015c0,1.043-0.194,2.029-0.586,2.959c-0.388,0.93-0.945,1.747-1.677,2.452
			c-0.759,0.724-1.612,1.279-2.562,1.664c-0.95,0.385-1.934,0.578-2.95,0.578c-0.891,0-1.762-0.151-2.616-0.453
			c-0.854-0.302-1.636-0.736-2.347-1.301c-0.917-0.73-1.62-1.604-2.108-2.621c-0.489-1.016-0.732-2.109-0.732-3.278
			c0-1.05,0.192-2.035,0.578-2.955c0.385-0.92,0.95-1.739,1.695-2.456c0.73-0.711,1.579-1.262,2.546-1.654
			c0.967-0.392,1.961-0.588,2.984-0.588c1.016,0,2.005,0.196,2.964,0.588c0.96,0.392,1.809,0.943,2.548,1.654
			c0.735,0.717,1.297,1.538,1.685,2.461C86.388,113.988,86.581,114.972,86.581,116.015z M78.807,120.888
			c1.322,0,2.413-0.464,3.273-1.391c0.861-0.926,1.29-2.088,1.29-3.482c0-1.382-0.432-2.545-1.304-3.488
			c-0.871-0.943-1.957-1.415-3.259-1.415c-1.322,0-2.419,0.47-3.288,1.41c-0.871,0.94-1.306,2.105-1.306,3.493
			c0,1.408,0.428,2.572,1.286,3.492C76.356,120.428,77.458,120.888,78.807,120.888z"/>
		<path fill="#181C21" d="M101.757,108.69v9.078c0,1.981-0.523,3.458-1.565,4.435c-1.042,0.977-2.614,1.465-4.714,1.465
			c-2.131,0-3.721-0.489-4.763-1.465s-1.563-2.454-1.563-4.435v-9.078h3.099v8.591c0,1.203,0.265,2.108,0.798,2.716
			c0.531,0.608,1.325,0.912,2.381,0.912c1.062,0,1.866-0.306,2.412-0.917c0.543-0.611,0.816-1.515,0.816-2.711v-8.591H101.757z"/>
		<path fill="#181C21" d="M104.048,121.426l1.735-1.963c0.218,0.538,0.572,0.961,1.056,1.271c0.485,0.309,1.03,0.464,1.634,0.464
			c0.731,0,1.309-0.173,1.733-0.518c0.426-0.345,0.638-0.811,0.638-1.396c0-0.691-0.707-1.379-2.123-2.062
			c-0.459-0.219-0.82-0.399-1.087-0.538c-1.275-0.665-2.159-1.314-2.65-1.948c-0.491-0.634-0.737-1.391-0.737-2.267
			c0-1.203,0.477-2.191,1.43-2.965c0.953-0.774,2.192-1.16,3.713-1.16c0.883,0,1.646,0.155,2.287,0.464
			c0.64,0.309,1.208,0.792,1.699,1.449l-1.842,1.764c-0.22-0.425-0.511-0.742-0.873-0.951c-0.362-0.21-0.8-0.314-1.311-0.314
			c-0.618,0-1.115,0.155-1.495,0.464c-0.378,0.308-0.568,0.709-0.568,1.201c0,0.771,0.749,1.475,2.252,2.112
			c0.299,0.126,0.527,0.226,0.687,0.299c1.236,0.566,2.151,1.203,2.745,1.914c0.596,0.711,0.893,1.521,0.893,2.432
			c0,1.368-0.467,2.459-1.4,3.273c-0.933,0.814-2.188,1.221-3.763,1.221c-1.115,0-2.072-0.193-2.87-0.578
			C105.035,122.705,104.439,122.151,104.048,121.426z"/>
		<path fill="#181C21" d="M116.476,123.28v-14.59h3.119v14.59H116.476z"/>
		<path fill="#181C21" d="M122.924,123.28v-14.59h3.24l6.458,8.491c0.186,0.239,0.39,0.577,0.612,1.012
			c0.222,0.435,0.454,0.948,0.693,1.539c-0.073-0.431-0.127-0.86-0.16-1.286c-0.034-0.425-0.05-0.956-0.05-1.594v-8.162h2.979v14.59
			h-3.058l-6.637-8.65c-0.186-0.239-0.388-0.577-0.608-1.011c-0.218-0.435-0.452-0.955-0.697-1.56
			c0.073,0.419,0.125,0.842,0.16,1.271c0.032,0.429,0.048,0.969,0.048,1.62v8.331H122.924z"/>
		<path fill="#181C21" d="M147.191,115.586h6.648c0.012,0.087,0.02,0.18,0.024,0.28c0.004,0.099,0.004,0.252,0.004,0.459
			c0,2.186-0.624,3.956-1.872,5.311c-1.248,1.355-2.864,2.033-4.844,2.033c-2.264,0-4.133-0.723-5.601-2.167
			c-1.466-1.445-2.202-3.28-2.202-5.506c0-2.206,0.737-4.03,2.212-5.471c1.477-1.442,3.339-2.162,5.591-2.162
			c1.19,0,2.278,0.248,3.268,0.747c0.99,0.498,1.874,1.242,2.652,2.232l-2.103,1.554c-0.525-0.65-1.077-1.121-1.654-1.41
			c-0.578-0.289-1.246-0.433-2.004-0.433c-1.442,0-2.594,0.448-3.458,1.345c-0.863,0.897-1.295,2.096-1.295,3.597
			c0,1.475,0.432,2.665,1.301,3.572c0.867,0.907,1.998,1.36,3.393,1.36c1.022,0,1.852-0.24,2.491-0.722
			c0.638-0.482,0.957-1.111,0.957-1.889v-0.16h-3.509V115.586z"/>
	</g>
	<g>
		<path fill="#181C21" d="M7.474,138.553v-8.848h4.666v0.961H8.526v2.538h3.614v0.979H8.526v3.391h3.614v0.979H7.474z"/>
		<path fill="#181C21" d="M35.956,131.821c-0.423-0.459-0.874-0.799-1.354-1.018c-0.479-0.22-1.009-0.329-1.589-0.329
			c-0.467,0-0.924,0.095-1.369,0.284c-0.445,0.189-0.831,0.453-1.157,0.792c-0.338,0.351-0.592,0.742-0.762,1.176
			s-0.254,0.912-0.254,1.435c0,0.411,0.05,0.79,0.151,1.136c0.101,0.347,0.252,0.665,0.453,0.955
			c0.355,0.504,0.791,0.891,1.308,1.163c0.518,0.272,1.077,0.408,1.677,0.408c0.564,0,1.088-0.117,1.571-0.351
			s0.925-0.582,1.324-1.046v1.396c-0.439,0.318-0.912,0.559-1.417,0.722c-0.506,0.163-1.028,0.245-1.568,0.245
			c-0.467,0-0.923-0.07-1.366-0.209s-0.858-0.341-1.245-0.607c-0.645-0.447-1.137-0.997-1.478-1.65s-0.511-1.37-0.511-2.152
			c0-0.681,0.114-1.3,0.341-1.858c0.228-0.558,0.575-1.065,1.043-1.52c0.451-0.435,0.951-0.76,1.499-0.976
			c0.548-0.216,1.146-0.323,1.795-0.323c0.512,0,1.007,0.078,1.487,0.233c0.479,0.155,0.953,0.396,1.42,0.722V131.821z"/>
		<path fill="#181C21" d="M52.568,129.705h1.064v5.506c0,0.894,0.19,1.551,0.571,1.97c0.381,0.419,0.978,0.629,1.792,0.629
			c0.814,0,1.411-0.21,1.792-0.629c0.381-0.419,0.571-1.076,0.571-1.97v-5.506h1.07v5.506c0,1.197-0.285,2.092-0.855,2.686
			s-1.429,0.891-2.578,0.891c-1.144,0-2.001-0.297-2.572-0.891c-0.57-0.594-0.855-1.49-0.855-2.686V129.705z"/>
		<path fill="#181C21" d="M78.952,129.355l4.025,9.199h-1.142l-1.148-2.714H77.23l-1.148,2.714h-1.142L78.952,129.355z
			 M78.952,131.682l-1.408,3.258h2.816L78.952,131.682z"/>
		<path fill="#181C21" d="M98.744,138.553v-8.848h1.698c1.257,0,2.141,0.063,2.657,0.19c0.512,0.127,0.963,0.339,1.35,0.638
			c0.508,0.391,0.892,0.89,1.154,1.499s0.393,1.309,0.393,2.103c0,0.79-0.129,1.488-0.391,2.094
			c-0.258,0.606-0.645,1.105-1.156,1.496c-0.387,0.298-0.828,0.511-1.322,0.638c-0.494,0.127-1.261,0.19-2.305,0.19h-0.381H98.744z
			 M99.807,137.562h0.671c1.088,0,1.841-0.047,2.26-0.142c0.419-0.095,0.768-0.257,1.046-0.487c0.363-0.302,0.639-0.692,0.828-1.169
			c0.189-0.477,0.284-1.024,0.284-1.641c0-0.62-0.093-1.165-0.282-1.635c-0.185-0.469-0.463-0.857-0.83-1.163
			c-0.278-0.234-0.633-0.4-1.06-0.499c-0.431-0.099-1.179-0.148-2.246-0.148h-0.671V137.562z"/>
		<path fill="#181C21" d="M131.623,134.148c0,0.633-0.117,1.229-0.351,1.789c-0.234,0.56-0.574,1.058-1.021,1.493
			c-0.449,0.435-0.963,0.771-1.545,1.006c-0.584,0.236-1.187,0.354-1.813,0.354c-0.625,0-1.225-0.118-1.805-0.354
			c-0.578-0.236-1.09-0.571-1.539-1.006c-0.451-0.439-0.794-0.939-1.029-1.499c-0.236-0.56-0.355-1.154-0.355-1.783
			c0-0.633,0.119-1.23,0.355-1.792s0.578-1.063,1.029-1.502c0.445-0.431,0.957-0.764,1.537-0.997
			c0.58-0.234,1.183-0.351,1.807-0.351c0.631,0,1.235,0.117,1.819,0.351c0.582,0.234,1.094,0.566,1.539,0.997
			c0.447,0.435,0.788,0.934,1.021,1.496C131.506,132.912,131.623,133.511,131.623,134.148z M126.893,137.798
			c0.486,0,0.945-0.092,1.384-0.275c0.437-0.183,0.83-0.45,1.183-0.801c0.347-0.346,0.61-0.739,0.792-1.179
			c0.181-0.439,0.272-0.905,0.272-1.396c0-0.496-0.093-0.967-0.276-1.414c-0.183-0.447-0.445-0.842-0.788-1.185
			c-0.349-0.346-0.739-0.61-1.176-0.792c-0.439-0.181-0.901-0.272-1.39-0.272c-0.492,0-0.957,0.091-1.396,0.272
			c-0.439,0.181-0.828,0.445-1.168,0.792c-0.347,0.351-0.61,0.747-0.792,1.191s-0.272,0.913-0.272,1.408
			c0,0.492,0.091,0.955,0.27,1.39c0.179,0.435,0.443,0.83,0.794,1.185c0.357,0.355,0.749,0.622,1.183,0.804
			C125.946,137.707,126.406,137.798,126.893,137.798z"/>
		<path fill="#181C21" d="M148.193,138.553v-8.848h2.079c0.592,0,1.025,0.033,1.301,0.1s0.52,0.18,0.729,0.341
			c0.262,0.205,0.465,0.48,0.61,0.825c0.145,0.344,0.218,0.726,0.218,1.145c0,0.725-0.203,1.276-0.606,1.653
			c-0.407,0.377-0.999,0.565-1.781,0.565h-0.187l3.378,4.219h-1.336l-3.227-4.219h-0.151v4.219H148.193z M149.221,130.594v2.961
			h0.804c0.822,0,1.372-0.106,1.65-0.317c0.278-0.212,0.417-0.581,0.417-1.109c0-0.568-0.143-0.966-0.429-1.194
			s-0.832-0.341-1.638-0.341H149.221z"/>
	</g>
</g>
</svg>
